name Walk1.mot
datacolumns 19
datarows 12
range 1.21600000 1.22700000
endheader

                time	   L_ground_force_vx	   L_ground_force_vy	   L_ground_force_vz	   L_ground_force_px	   L_ground_force_py	   L_ground_force_pz	   R_ground_force_vx	   R_ground_force_vy	   R_ground_force_vz	   R_ground_force_px	   R_ground_force_py	   R_ground_force_pz	   L_ground_torque_x	   L_ground_torque_y	   L_ground_torque_z	   R_ground_torque_x	   R_ground_torque_y	   R_ground_torque_z	
          1.21600000	         -3.41663609	         68.73220364	         -3.71950331	          0.02113061	          0.00000000	         -0.01353844	         -0.00000000	          0.00000000	          0.00000000	          0.00000000	          0.00000000	          0.00000000	          0.00000000	          0.14428509	          0.00000000	          0.00000000	          0.00000000	          0.00000000	
          1.21700000	         -4.11694061	         75.66270943	         -4.01968136	          0.00563300	          0.00000000	         -0.01496697	         -0.00000000	          0.00000000	          0.00000000	          0.00000000	          0.00000000	          0.00000000	          0.00000000	          0.17984309	          0.00000000	          0.00000000	          0.00000000	          0.00000000	
          1.21800000	         -4.86085477	         82.87167628	         -4.31854700	         -0.00977904	          0.00000000	         -0.01641856	         -0.00000000	          0.00000000	          0.00000000	          0.00000000	          0.00000000	          0.00000000	          0.00000000	          0.21641807	          0.00000000	          0.00000000	          0.00000000	          0.00000000	
          1.21900000	         -5.64945372	         90.35633796	         -4.61501239	         -0.02506687	          0.00000000	         -0.01789036	         -0.00000000	          0.00000000	          0.00000000	          0.00000000	          0.00000000	          0.00000000	          0.00000000	          0.25398640	          0.00000000	          0.00000000	          0.00000000	          0.00000000	
          1.22000000	         -6.48373644	         98.11263279	         -4.90792232	         -0.04019172	          0.00000000	         -0.01937930	         -0.00000000	          0.00000000	          0.00000000	          0.00000000	          0.00000000	          0.00000000	          0.00000000	          0.29252101	          0.00000000	          0.00000000	          0.00000000	          0.00000000	
          1.22100000	         -7.36461337	        106.13508686	         -5.19604957	         -0.05511443	          0.00000000	         -0.02088199	         -0.00000000	          0.00000000	          0.00000000	          0.00000000	          0.00000000	          0.00000000	          0.00000000	          0.33199090	          0.00000000	          0.00000000	          0.00000000	          0.00000000	
          1.22200000	         -8.29289452	        114.41670653	         -5.47809358	         -0.06979560	          0.00000000	         -0.02239479	         -0.00000000	          0.00000000	          0.00000000	          0.00000000	          0.00000000	          0.00000000	          0.00000000	          0.37236086	          0.00000000	          0.00000000	          0.00000000	          0.00000000	
          1.22300000	         -9.26928058	        122.94891387	         -5.75269026	         -0.08419694	          0.00000000	         -0.02391377	         -0.00000000	          0.00000000	          0.00000000	          0.00000000	          0.00000000	          0.00000000	          0.00000000	          0.41359256	          0.00000000	          0.00000000	          0.00000000	          0.00000000	
          1.22400000	        -10.29435635	        131.72153271	         -6.01843438	         -0.09828332	          0.00000000	         -0.02543484	         -0.00000000	          0.00000000	          0.00000000	          0.00000000	          0.00000000	          0.00000000	          0.00000000	          0.45564671	          0.00000000	          0.00000000	          0.00000000	          0.00000000	
          1.22500000	        -11.36858225	        140.72278793	         -6.27390463	         -0.11202408	          0.00000000	         -0.02695384	         -0.00000000	          0.00000000	          0.00000000	          0.00000000	          0.00000000	          0.00000000	          0.00000000	          0.49848469	          0.00000000	          0.00000000	          0.00000000	          0.00000000	
          1.22600000	        -12.49228084	        149.93929680	         -6.51768478	         -0.12539299	          0.00000000	         -0.02846660	         -0.00000000	          0.00000000	          0.00000000	          0.00000000	          0.00000000	          0.00000000	          0.00000000	          0.54206885	          0.00000000	          0.00000000	          0.00000000	          0.00000000	
          1.22700000	        -13.66561930	        159.35606703	         -6.74838228	         -0.13836794	          0.00000000	         -0.02996906	         -0.00000000	          0.00000000	          0.00000000	          0.00000000	          0.00000000	          0.00000000	          0.00000000	          0.58636173	          0.00000000	          0.00000000	          0.00000000	          0.00000000	
